<svg width="128" height="128" viewBox="0 0 128 128" fill="none" xmlns="http://www.w3.org/2000/svg">
<path d="M76.6032 55.2564C75.4078 54.5179 75.4343 52.4155 76.6545 51.7203C83.2922 47.9388 87.7143 41.1742 87.7143 33.4585C87.7143 21.6073 77.2816 12 64.4121 12C51.5427 12 41.1099 21.6073 41.1099 33.4585C41.1099 41.1742 45.5321 47.9388 52.1697 51.7203C53.3899 52.4155 53.4164 54.5179 52.221 55.2564C50.7505 56.1648 49.4077 57.233 48.2226 58.4337C47.9292 58.7309 47.5359 58.9066 47.1223 58.9066L38.888 58.9066C37.4109 58.9066 35.9854 58.3523 34.8835 57.3494L29.239 52.2124C28.9415 51.9417 28.7617 51.5616 28.7391 51.1558L27.7533 33.4359C27.6122 30.9004 25.4819 28.9616 22.995 29.1054C20.5082 29.2492 18.6065 31.4212 18.7476 33.9567L19.0523 39.4343C19.1282 40.7976 17.5494 41.5739 16.5502 40.6645L9.88576 34.5992C8.02753 32.9081 5.17648 33.073 3.51774 34.9675C1.85901 36.862 2.02072 39.7688 3.87894 41.4599L10.5434 47.5252C11.5426 48.4346 10.9646 50.1216 9.62742 50.199L4.25483 50.5097C1.76796 50.6535 -0.13369 52.8255 0.0073665 55.3609C0.148425 57.8964 2.27878 59.8352 4.76564 59.6914L22.1459 58.6863C22.5439 58.6633 22.9347 58.8024 23.2321 59.0731L28.8766 64.2101C31.6315 66.7174 35.1952 68.1031 38.888 68.1031L41.135 68.1031C42.0884 68.1031 42.7977 68.9974 42.7023 69.9645C42.6434 70.5615 42.6133 71.1661 42.6133 71.7771C42.6133 76.9002 44.7285 81.5717 48.2041 85.1018C48.6238 85.5281 48.7916 86.1552 48.6079 86.7295L45.7402 95.6941C44.1776 100.579 39.9449 104.071 34.9332 104.611L28.5306 105.3C25.6406 105.611 23.5452 108.252 23.8504 111.198C24.1555 114.145 26.7456 116.281 29.6356 115.97L36.0382 115.281C45.1773 114.297 52.8956 107.929 55.7451 99.0209L57.8985 92.2894C58.1448 91.5192 58.9357 91.0827 59.7153 91.2392C61.228 91.5428 62.7996 91.7028 64.4121 91.7028C66.1177 91.7028 67.7775 91.5238 69.3702 91.1852C70.1549 91.0183 70.9568 91.4547 71.2054 92.2316L73.3772 99.0209C76.2267 107.929 83.945 114.297 93.0841 115.281L99.4867 115.97C102.377 116.281 104.967 114.145 105.272 111.198C105.577 108.252 103.482 105.611 100.592 105.3L94.1891 104.611C89.1774 104.071 84.9447 100.579 83.3821 95.6941L80.4407 86.4989C80.2595 85.9326 80.4202 85.3139 80.8282 84.8875C84.18 81.3837 86.2109 76.7972 86.2109 71.7771C86.2109 71.1661 86.1809 70.5615 86.122 69.9645C86.0265 68.9974 86.7359 68.103 87.6892 68.103L89.1119 68.103C92.8048 68.1031 96.3685 66.7173 99.1234 64.2101L104.768 59.0731C105.065 58.8024 105.456 58.6633 105.854 58.6863L123.234 59.6914C125.721 59.8352 127.852 57.8964 127.993 55.3609C128.134 52.8255 126.232 50.6535 123.745 50.5097L118.373 50.199C117.035 50.1216 116.457 48.4346 117.457 47.5252L124.121 41.4599C125.979 39.7688 126.141 36.862 124.482 34.9675C122.824 33.073 119.972 32.9081 118.114 34.5992L111.45 40.6645C110.451 41.5739 108.872 40.7976 108.948 39.4343L109.252 33.9567C109.393 31.4212 107.492 29.2492 105.005 29.1054C102.518 28.9616 100.388 30.9004 100.247 33.4359L99.2609 51.1558C99.2383 51.5616 99.0585 51.9417 98.7611 52.2124L93.1166 57.3494C92.0146 58.3523 90.5891 58.9066 89.112 58.9066L81.7017 58.9065C81.2882 58.9065 80.8949 58.7308 80.6015 58.4336C79.4164 57.2329 78.0737 56.1648 76.6032 55.2564Z" fill="#FF4C11"/>
</svg>
